<mxfile host="app.diagrams.net" modified="2020-11-08T20:38:25.662Z" agent="5.0 (X11)" etag="zQ9nEKUcxHHYlGIpGju4" version="13.9.2" type="github">
  <diagram id="R2lEEEUBdFMjLlhIrx00" name="Page-1">
    <mxGraphModel dx="1548" dy="771" grid="1" gridSize="10" guides="1" tooltips="1" connect="1" arrows="1" fold="1" page="1" pageScale="1" pageWidth="850" pageHeight="1100" math="0" shadow="0" extFonts="Permanent Marker^https://fonts.googleapis.com/css?family=Permanent+Marker">
      <root>
        <mxCell id="0" />
        <mxCell id="1" parent="0" />
        <mxCell id="CAHNvulc8Ei77Li_YzJQ-24" value="Team" style="shape=table;startSize=30;container=1;collapsible=1;childLayout=tableLayout;fixedRows=1;rowLines=0;fontStyle=1;align=center;resizeLast=1;" parent="1" vertex="1">
          <mxGeometry x="-330" y="180" width="190" height="130" as="geometry" />
        </mxCell>
        <mxCell id="CAHNvulc8Ei77Li_YzJQ-25" value="" style="shape=partialRectangle;collapsible=0;dropTarget=0;pointerEvents=0;fillColor=none;points=[[0,0.5],[1,0.5]];portConstraint=eastwest;top=0;left=0;right=0;bottom=1;" parent="CAHNvulc8Ei77Li_YzJQ-24" vertex="1">
          <mxGeometry y="30" width="190" height="30" as="geometry" />
        </mxCell>
        <mxCell id="CAHNvulc8Ei77Li_YzJQ-26" value="PK" style="shape=partialRectangle;overflow=hidden;connectable=0;fillColor=none;top=0;left=0;bottom=0;right=0;fontStyle=1;" parent="CAHNvulc8Ei77Li_YzJQ-25" vertex="1">
          <mxGeometry width="30" height="30" as="geometry" />
        </mxCell>
        <mxCell id="CAHNvulc8Ei77Li_YzJQ-27" value="id int NOT NULL " style="shape=partialRectangle;overflow=hidden;connectable=0;fillColor=none;top=0;left=0;bottom=0;right=0;align=left;spacingLeft=6;fontStyle=5;" parent="CAHNvulc8Ei77Li_YzJQ-25" vertex="1">
          <mxGeometry x="30" width="160" height="30" as="geometry" />
        </mxCell>
        <mxCell id="CAHNvulc8Ei77Li_YzJQ-28" value="" style="shape=partialRectangle;collapsible=0;dropTarget=0;pointerEvents=0;fillColor=none;points=[[0,0.5],[1,0.5]];portConstraint=eastwest;top=0;left=0;right=0;bottom=0;" parent="CAHNvulc8Ei77Li_YzJQ-24" vertex="1">
          <mxGeometry y="60" width="190" height="30" as="geometry" />
        </mxCell>
        <mxCell id="CAHNvulc8Ei77Li_YzJQ-29" value="" style="shape=partialRectangle;overflow=hidden;connectable=0;fillColor=none;top=0;left=0;bottom=0;right=0;" parent="CAHNvulc8Ei77Li_YzJQ-28" vertex="1">
          <mxGeometry width="30" height="30" as="geometry" />
        </mxCell>
        <mxCell id="CAHNvulc8Ei77Li_YzJQ-30" value="name char(50) NOT NULL" style="shape=partialRectangle;overflow=hidden;connectable=0;fillColor=none;top=0;left=0;bottom=0;right=0;align=left;spacingLeft=6;" parent="CAHNvulc8Ei77Li_YzJQ-28" vertex="1">
          <mxGeometry x="30" width="160" height="30" as="geometry" />
        </mxCell>
        <mxCell id="CAHNvulc8Ei77Li_YzJQ-31" value="" style="shape=partialRectangle;collapsible=0;dropTarget=0;pointerEvents=0;fillColor=none;points=[[0,0.5],[1,0.5]];portConstraint=eastwest;top=0;left=0;right=0;bottom=0;" parent="CAHNvulc8Ei77Li_YzJQ-24" vertex="1">
          <mxGeometry y="90" width="190" height="30" as="geometry" />
        </mxCell>
        <mxCell id="CAHNvulc8Ei77Li_YzJQ-32" value="" style="shape=partialRectangle;overflow=hidden;connectable=0;fillColor=none;top=0;left=0;bottom=0;right=0;" parent="CAHNvulc8Ei77Li_YzJQ-31" vertex="1">
          <mxGeometry width="30" height="30" as="geometry" />
        </mxCell>
        <mxCell id="CAHNvulc8Ei77Li_YzJQ-33" value="nationality char(50)" style="shape=partialRectangle;overflow=hidden;connectable=0;fillColor=none;top=0;left=0;bottom=0;right=0;align=left;spacingLeft=6;" parent="CAHNvulc8Ei77Li_YzJQ-31" vertex="1">
          <mxGeometry x="30" width="160" height="30" as="geometry" />
        </mxCell>
        <mxCell id="CAHNvulc8Ei77Li_YzJQ-34" value="Server" style="shape=table;startSize=30;container=1;collapsible=1;childLayout=tableLayout;fixedRows=1;rowLines=0;fontStyle=1;align=center;resizeLast=1;" parent="1" vertex="1">
          <mxGeometry x="-595" y="110" width="170" height="160" as="geometry" />
        </mxCell>
        <mxCell id="CAHNvulc8Ei77Li_YzJQ-35" value="" style="shape=partialRectangle;collapsible=0;dropTarget=0;pointerEvents=0;fillColor=none;points=[[0,0.5],[1,0.5]];portConstraint=eastwest;top=0;left=0;right=0;bottom=1;" parent="CAHNvulc8Ei77Li_YzJQ-34" vertex="1">
          <mxGeometry y="30" width="170" height="30" as="geometry" />
        </mxCell>
        <mxCell id="CAHNvulc8Ei77Li_YzJQ-36" value="PK" style="shape=partialRectangle;overflow=hidden;connectable=0;fillColor=none;top=0;left=0;bottom=0;right=0;fontStyle=1;" parent="CAHNvulc8Ei77Li_YzJQ-35" vertex="1">
          <mxGeometry width="30" height="30" as="geometry" />
        </mxCell>
        <mxCell id="CAHNvulc8Ei77Li_YzJQ-37" value="id int NOT NULL " style="shape=partialRectangle;overflow=hidden;connectable=0;fillColor=none;top=0;left=0;bottom=0;right=0;align=left;spacingLeft=6;fontStyle=5;" parent="CAHNvulc8Ei77Li_YzJQ-35" vertex="1">
          <mxGeometry x="30" width="140" height="30" as="geometry" />
        </mxCell>
        <mxCell id="CAHNvulc8Ei77Li_YzJQ-38" value="" style="shape=partialRectangle;collapsible=0;dropTarget=0;pointerEvents=0;fillColor=none;points=[[0,0.5],[1,0.5]];portConstraint=eastwest;top=0;left=0;right=0;bottom=0;" parent="CAHNvulc8Ei77Li_YzJQ-34" vertex="1">
          <mxGeometry y="60" width="170" height="30" as="geometry" />
        </mxCell>
        <mxCell id="CAHNvulc8Ei77Li_YzJQ-39" value="" style="shape=partialRectangle;overflow=hidden;connectable=0;fillColor=none;top=0;left=0;bottom=0;right=0;" parent="CAHNvulc8Ei77Li_YzJQ-38" vertex="1">
          <mxGeometry width="30" height="30" as="geometry" />
        </mxCell>
        <mxCell id="CAHNvulc8Ei77Li_YzJQ-40" value="ip char(18) NOT NULL" style="shape=partialRectangle;overflow=hidden;connectable=0;fillColor=none;top=0;left=0;bottom=0;right=0;align=left;spacingLeft=6;" parent="CAHNvulc8Ei77Li_YzJQ-38" vertex="1">
          <mxGeometry x="30" width="140" height="30" as="geometry" />
        </mxCell>
        <mxCell id="CAHNvulc8Ei77Li_YzJQ-41" value="" style="shape=partialRectangle;collapsible=0;dropTarget=0;pointerEvents=0;fillColor=none;points=[[0,0.5],[1,0.5]];portConstraint=eastwest;top=0;left=0;right=0;bottom=0;" parent="CAHNvulc8Ei77Li_YzJQ-34" vertex="1">
          <mxGeometry y="90" width="170" height="30" as="geometry" />
        </mxCell>
        <mxCell id="CAHNvulc8Ei77Li_YzJQ-42" value="" style="shape=partialRectangle;overflow=hidden;connectable=0;fillColor=none;top=0;left=0;bottom=0;right=0;" parent="CAHNvulc8Ei77Li_YzJQ-41" vertex="1">
          <mxGeometry width="30" height="30" as="geometry" />
        </mxCell>
        <mxCell id="CAHNvulc8Ei77Li_YzJQ-43" value="port int" style="shape=partialRectangle;overflow=hidden;connectable=0;fillColor=none;top=0;left=0;bottom=0;right=0;align=left;spacingLeft=6;" parent="CAHNvulc8Ei77Li_YzJQ-41" vertex="1">
          <mxGeometry x="30" width="140" height="30" as="geometry" />
        </mxCell>
        <mxCell id="CAHNvulc8Ei77Li_YzJQ-44" value="" style="shape=partialRectangle;collapsible=0;dropTarget=0;pointerEvents=0;fillColor=none;points=[[0,0.5],[1,0.5]];portConstraint=eastwest;top=0;left=0;right=0;bottom=0;" parent="CAHNvulc8Ei77Li_YzJQ-34" vertex="1">
          <mxGeometry y="120" width="170" height="30" as="geometry" />
        </mxCell>
        <mxCell id="CAHNvulc8Ei77Li_YzJQ-45" value="" style="shape=partialRectangle;overflow=hidden;connectable=0;fillColor=none;top=0;left=0;bottom=0;right=0;" parent="CAHNvulc8Ei77Li_YzJQ-44" vertex="1">
          <mxGeometry width="30" height="30" as="geometry" />
        </mxCell>
        <mxCell id="CAHNvulc8Ei77Li_YzJQ-46" value="nickname char(50)" style="shape=partialRectangle;overflow=hidden;connectable=0;fillColor=none;top=0;left=0;bottom=0;right=0;align=left;spacingLeft=6;" parent="CAHNvulc8Ei77Li_YzJQ-44" vertex="1">
          <mxGeometry x="30" width="140" height="30" as="geometry" />
        </mxCell>
        <mxCell id="CAHNvulc8Ei77Li_YzJQ-47" value="APIUser" style="shape=table;startSize=30;container=1;collapsible=1;childLayout=tableLayout;fixedRows=1;rowLines=0;fontStyle=1;align=center;resizeLast=1;" parent="1" vertex="1">
          <mxGeometry x="310" y="15" width="220" height="130" as="geometry" />
        </mxCell>
        <mxCell id="CAHNvulc8Ei77Li_YzJQ-48" value="" style="shape=partialRectangle;collapsible=0;dropTarget=0;pointerEvents=0;fillColor=none;points=[[0,0.5],[1,0.5]];portConstraint=eastwest;top=0;left=0;right=0;bottom=1;" parent="CAHNvulc8Ei77Li_YzJQ-47" vertex="1">
          <mxGeometry y="30" width="220" height="30" as="geometry" />
        </mxCell>
        <mxCell id="CAHNvulc8Ei77Li_YzJQ-49" value="PK" style="shape=partialRectangle;overflow=hidden;connectable=0;fillColor=none;top=0;left=0;bottom=0;right=0;fontStyle=1;" parent="CAHNvulc8Ei77Li_YzJQ-48" vertex="1">
          <mxGeometry width="30" height="30" as="geometry" />
        </mxCell>
        <mxCell id="CAHNvulc8Ei77Li_YzJQ-50" value="id int NOT NULL " style="shape=partialRectangle;overflow=hidden;connectable=0;fillColor=none;top=0;left=0;bottom=0;right=0;align=left;spacingLeft=6;fontStyle=5;" parent="CAHNvulc8Ei77Li_YzJQ-48" vertex="1">
          <mxGeometry x="30" width="190" height="30" as="geometry" />
        </mxCell>
        <mxCell id="CAHNvulc8Ei77Li_YzJQ-51" value="" style="shape=partialRectangle;collapsible=0;dropTarget=0;pointerEvents=0;fillColor=none;points=[[0,0.5],[1,0.5]];portConstraint=eastwest;top=0;left=0;right=0;bottom=0;" parent="CAHNvulc8Ei77Li_YzJQ-47" vertex="1">
          <mxGeometry y="60" width="220" height="30" as="geometry" />
        </mxCell>
        <mxCell id="CAHNvulc8Ei77Li_YzJQ-52" value="" style="shape=partialRectangle;overflow=hidden;connectable=0;fillColor=none;top=0;left=0;bottom=0;right=0;" parent="CAHNvulc8Ei77Li_YzJQ-51" vertex="1">
          <mxGeometry width="30" height="30" as="geometry" />
        </mxCell>
        <mxCell id="CAHNvulc8Ei77Li_YzJQ-53" value="username char(50) NOT NULL" style="shape=partialRectangle;overflow=hidden;connectable=0;fillColor=none;top=0;left=0;bottom=0;right=0;align=left;spacingLeft=6;" parent="CAHNvulc8Ei77Li_YzJQ-51" vertex="1">
          <mxGeometry x="30" width="190" height="30" as="geometry" />
        </mxCell>
        <mxCell id="CAHNvulc8Ei77Li_YzJQ-54" value="" style="shape=partialRectangle;collapsible=0;dropTarget=0;pointerEvents=0;fillColor=none;points=[[0,0.5],[1,0.5]];portConstraint=eastwest;top=0;left=0;right=0;bottom=0;" parent="CAHNvulc8Ei77Li_YzJQ-47" vertex="1">
          <mxGeometry y="90" width="220" height="30" as="geometry" />
        </mxCell>
        <mxCell id="CAHNvulc8Ei77Li_YzJQ-55" value="" style="shape=partialRectangle;overflow=hidden;connectable=0;fillColor=none;top=0;left=0;bottom=0;right=0;" parent="CAHNvulc8Ei77Li_YzJQ-54" vertex="1">
          <mxGeometry width="30" height="30" as="geometry" />
        </mxCell>
        <mxCell id="CAHNvulc8Ei77Li_YzJQ-56" value="password char(200) NOT NULL" style="shape=partialRectangle;overflow=hidden;connectable=0;fillColor=none;top=0;left=0;bottom=0;right=0;align=left;spacingLeft=6;" parent="CAHNvulc8Ei77Li_YzJQ-54" vertex="1">
          <mxGeometry x="30" width="190" height="30" as="geometry" />
        </mxCell>
        <mxCell id="n8BZFwkFFO_Z2MSDaQy5-73" value="Match" style="shape=table;startSize=30;container=1;collapsible=1;childLayout=tableLayout;fixedRows=1;rowLines=0;fontStyle=1;align=center;resizeLast=1;" vertex="1" parent="1">
          <mxGeometry x="-30" y="15" width="270" height="565" as="geometry" />
        </mxCell>
        <mxCell id="n8BZFwkFFO_Z2MSDaQy5-74" value="" style="shape=partialRectangle;collapsible=0;dropTarget=0;pointerEvents=0;fillColor=none;points=[[0,0.5],[1,0.5]];portConstraint=eastwest;top=0;left=0;right=0;bottom=1;" vertex="1" parent="n8BZFwkFFO_Z2MSDaQy5-73">
          <mxGeometry y="30" width="270" height="30" as="geometry" />
        </mxCell>
        <mxCell id="n8BZFwkFFO_Z2MSDaQy5-75" value="PK" style="shape=partialRectangle;overflow=hidden;connectable=0;fillColor=none;top=0;left=0;bottom=0;right=0;fontStyle=1;" vertex="1" parent="n8BZFwkFFO_Z2MSDaQy5-74">
          <mxGeometry width="30" height="30" as="geometry" />
        </mxCell>
        <mxCell id="n8BZFwkFFO_Z2MSDaQy5-76" value="id int " style="shape=partialRectangle;overflow=hidden;connectable=0;fillColor=none;top=0;left=0;bottom=0;right=0;align=left;spacingLeft=6;fontStyle=5;" vertex="1" parent="n8BZFwkFFO_Z2MSDaQy5-74">
          <mxGeometry x="30" width="240" height="30" as="geometry" />
        </mxCell>
        <mxCell id="n8BZFwkFFO_Z2MSDaQy5-77" value="" style="shape=partialRectangle;collapsible=0;dropTarget=0;pointerEvents=0;fillColor=none;points=[[0,0.5],[1,0.5]];portConstraint=eastwest;top=0;left=0;right=0;bottom=0;" vertex="1" parent="n8BZFwkFFO_Z2MSDaQy5-73">
          <mxGeometry y="60" width="270" height="30" as="geometry" />
        </mxCell>
        <mxCell id="n8BZFwkFFO_Z2MSDaQy5-78" value="" style="shape=partialRectangle;overflow=hidden;connectable=0;fillColor=none;top=0;left=0;bottom=0;right=0;" vertex="1" parent="n8BZFwkFFO_Z2MSDaQy5-77">
          <mxGeometry width="30" height="30" as="geometry" />
        </mxCell>
        <mxCell id="n8BZFwkFFO_Z2MSDaQy5-79" value="idTeamA int" style="shape=partialRectangle;overflow=hidden;connectable=0;fillColor=none;top=0;left=0;bottom=0;right=0;align=left;spacingLeft=6;" vertex="1" parent="n8BZFwkFFO_Z2MSDaQy5-77">
          <mxGeometry x="30" width="240" height="30" as="geometry" />
        </mxCell>
        <mxCell id="n8BZFwkFFO_Z2MSDaQy5-80" value="" style="shape=partialRectangle;collapsible=0;dropTarget=0;pointerEvents=0;fillColor=none;points=[[0,0.5],[1,0.5]];portConstraint=eastwest;top=0;left=0;right=0;bottom=0;" vertex="1" parent="n8BZFwkFFO_Z2MSDaQy5-73">
          <mxGeometry y="90" width="270" height="30" as="geometry" />
        </mxCell>
        <mxCell id="n8BZFwkFFO_Z2MSDaQy5-81" value="" style="shape=partialRectangle;overflow=hidden;connectable=0;fillColor=none;top=0;left=0;bottom=0;right=0;" vertex="1" parent="n8BZFwkFFO_Z2MSDaQy5-80">
          <mxGeometry width="30" height="30" as="geometry" />
        </mxCell>
        <mxCell id="n8BZFwkFFO_Z2MSDaQy5-82" value="idTeamB int" style="shape=partialRectangle;overflow=hidden;connectable=0;fillColor=none;top=0;left=0;bottom=0;right=0;align=left;spacingLeft=6;" vertex="1" parent="n8BZFwkFFO_Z2MSDaQy5-80">
          <mxGeometry x="30" width="240" height="30" as="geometry" />
        </mxCell>
        <mxCell id="n8BZFwkFFO_Z2MSDaQy5-83" value="" style="shape=partialRectangle;collapsible=0;dropTarget=0;pointerEvents=0;fillColor=none;points=[[0,0.5],[1,0.5]];portConstraint=eastwest;top=0;left=0;right=0;bottom=0;" vertex="1" parent="n8BZFwkFFO_Z2MSDaQy5-73">
          <mxGeometry y="120" width="270" height="30" as="geometry" />
        </mxCell>
        <mxCell id="n8BZFwkFFO_Z2MSDaQy5-84" value="" style="shape=partialRectangle;overflow=hidden;connectable=0;fillColor=none;top=0;left=0;bottom=0;right=0;" vertex="1" parent="n8BZFwkFFO_Z2MSDaQy5-83">
          <mxGeometry width="30" height="30" as="geometry" />
        </mxCell>
        <mxCell id="n8BZFwkFFO_Z2MSDaQy5-85" value="idServer int" style="shape=partialRectangle;overflow=hidden;connectable=0;fillColor=none;top=0;left=0;bottom=0;right=0;align=left;spacingLeft=6;" vertex="1" parent="n8BZFwkFFO_Z2MSDaQy5-83">
          <mxGeometry x="30" width="240" height="30" as="geometry" />
        </mxCell>
        <mxCell id="n8BZFwkFFO_Z2MSDaQy5-86" value="" style="shape=partialRectangle;collapsible=0;dropTarget=0;pointerEvents=0;fillColor=none;points=[[0,0.5],[1,0.5]];portConstraint=eastwest;top=0;left=0;right=0;bottom=0;" vertex="1" parent="n8BZFwkFFO_Z2MSDaQy5-73">
          <mxGeometry y="150" width="270" height="30" as="geometry" />
        </mxCell>
        <mxCell id="n8BZFwkFFO_Z2MSDaQy5-87" value="" style="shape=partialRectangle;overflow=hidden;connectable=0;fillColor=none;top=0;left=0;bottom=0;right=0;" vertex="1" parent="n8BZFwkFFO_Z2MSDaQy5-86">
          <mxGeometry width="30" height="30" as="geometry" />
        </mxCell>
        <mxCell id="n8BZFwkFFO_Z2MSDaQy5-88" value="password char(200) NOT NULL" style="shape=partialRectangle;overflow=hidden;connectable=0;fillColor=none;top=0;left=0;bottom=0;right=0;align=left;spacingLeft=6;" vertex="1" parent="n8BZFwkFFO_Z2MSDaQy5-86">
          <mxGeometry x="30" width="240" height="30" as="geometry" />
        </mxCell>
        <mxCell id="n8BZFwkFFO_Z2MSDaQy5-89" value="" style="shape=partialRectangle;collapsible=0;dropTarget=0;pointerEvents=0;fillColor=none;points=[[0,0.5],[1,0.5]];portConstraint=eastwest;top=0;left=0;right=0;bottom=0;" vertex="1" parent="n8BZFwkFFO_Z2MSDaQy5-73">
          <mxGeometry y="180" width="270" height="30" as="geometry" />
        </mxCell>
        <mxCell id="n8BZFwkFFO_Z2MSDaQy5-90" value="" style="shape=partialRectangle;overflow=hidden;connectable=0;fillColor=none;top=0;left=0;bottom=0;right=0;" vertex="1" parent="n8BZFwkFFO_Z2MSDaQy5-89">
          <mxGeometry width="30" height="30" as="geometry" />
        </mxCell>
        <mxCell id="n8BZFwkFFO_Z2MSDaQy5-91" value="map char(50) NOT NULL" style="shape=partialRectangle;overflow=hidden;connectable=0;fillColor=none;top=0;left=0;bottom=0;right=0;align=left;spacingLeft=6;" vertex="1" parent="n8BZFwkFFO_Z2MSDaQy5-89">
          <mxGeometry x="30" width="240" height="30" as="geometry" />
        </mxCell>
        <mxCell id="n8BZFwkFFO_Z2MSDaQy5-92" value="" style="shape=partialRectangle;collapsible=0;dropTarget=0;pointerEvents=0;fillColor=none;points=[[0,0.5],[1,0.5]];portConstraint=eastwest;top=0;left=0;right=0;bottom=0;" vertex="1" parent="n8BZFwkFFO_Z2MSDaQy5-73">
          <mxGeometry y="210" width="270" height="30" as="geometry" />
        </mxCell>
        <mxCell id="n8BZFwkFFO_Z2MSDaQy5-93" value="" style="shape=partialRectangle;overflow=hidden;connectable=0;fillColor=none;top=0;left=0;bottom=0;right=0;" vertex="1" parent="n8BZFwkFFO_Z2MSDaQy5-92">
          <mxGeometry width="30" height="30" as="geometry" />
        </mxCell>
        <mxCell id="n8BZFwkFFO_Z2MSDaQy5-94" value="mapSelectionMode varchar(3) NOT NULL" style="shape=partialRectangle;overflow=hidden;connectable=0;fillColor=none;top=0;left=0;bottom=0;right=0;align=left;spacingLeft=6;" vertex="1" parent="n8BZFwkFFO_Z2MSDaQy5-92">
          <mxGeometry x="30" width="240" height="30" as="geometry" />
        </mxCell>
        <mxCell id="n8BZFwkFFO_Z2MSDaQy5-95" value="" style="shape=partialRectangle;collapsible=0;dropTarget=0;pointerEvents=0;fillColor=none;points=[[0,0.5],[1,0.5]];portConstraint=eastwest;top=0;left=0;right=0;bottom=0;" vertex="1" parent="n8BZFwkFFO_Z2MSDaQy5-73">
          <mxGeometry y="240" width="270" height="30" as="geometry" />
        </mxCell>
        <mxCell id="n8BZFwkFFO_Z2MSDaQy5-96" value="" style="shape=partialRectangle;overflow=hidden;connectable=0;fillColor=none;top=0;left=0;bottom=0;right=0;" vertex="1" parent="n8BZFwkFFO_Z2MSDaQy5-95">
          <mxGeometry width="30" height="30" as="geometry" />
        </mxCell>
        <mxCell id="n8BZFwkFFO_Z2MSDaQy5-97" value="maxRounds int" style="shape=partialRectangle;overflow=hidden;connectable=0;fillColor=none;top=0;left=0;bottom=0;right=0;align=left;spacingLeft=6;" vertex="1" parent="n8BZFwkFFO_Z2MSDaQy5-95">
          <mxGeometry x="30" width="240" height="30" as="geometry" />
        </mxCell>
        <mxCell id="n8BZFwkFFO_Z2MSDaQy5-98" value="" style="shape=partialRectangle;collapsible=0;dropTarget=0;pointerEvents=0;fillColor=none;points=[[0,0.5],[1,0.5]];portConstraint=eastwest;top=0;left=0;right=0;bottom=0;" vertex="1" parent="n8BZFwkFFO_Z2MSDaQy5-73">
          <mxGeometry y="270" width="270" height="30" as="geometry" />
        </mxCell>
        <mxCell id="n8BZFwkFFO_Z2MSDaQy5-99" value="" style="shape=partialRectangle;overflow=hidden;connectable=0;fillColor=none;top=0;left=0;bottom=0;right=0;" vertex="1" parent="n8BZFwkFFO_Z2MSDaQy5-98">
          <mxGeometry width="30" height="30" as="geometry" />
        </mxCell>
        <mxCell id="n8BZFwkFFO_Z2MSDaQy5-100" value="overtime boolean" style="shape=partialRectangle;overflow=hidden;connectable=0;fillColor=none;top=0;left=0;bottom=0;right=0;align=left;spacingLeft=6;" vertex="1" parent="n8BZFwkFFO_Z2MSDaQy5-98">
          <mxGeometry x="30" width="240" height="30" as="geometry" />
        </mxCell>
        <mxCell id="n8BZFwkFFO_Z2MSDaQy5-101" value="" style="shape=partialRectangle;collapsible=0;dropTarget=0;pointerEvents=0;fillColor=none;points=[[0,0.5],[1,0.5]];portConstraint=eastwest;top=0;left=0;right=0;bottom=0;" vertex="1" parent="n8BZFwkFFO_Z2MSDaQy5-73">
          <mxGeometry y="300" width="270" height="30" as="geometry" />
        </mxCell>
        <mxCell id="n8BZFwkFFO_Z2MSDaQy5-102" value="" style="shape=partialRectangle;overflow=hidden;connectable=0;fillColor=none;top=0;left=0;bottom=0;right=0;" vertex="1" parent="n8BZFwkFFO_Z2MSDaQy5-101">
          <mxGeometry width="30" height="30" as="geometry" />
        </mxCell>
        <mxCell id="n8BZFwkFFO_Z2MSDaQy5-103" value="knifeRound boolean" style="shape=partialRectangle;overflow=hidden;connectable=0;fillColor=none;top=0;left=0;bottom=0;right=0;align=left;spacingLeft=6;" vertex="1" parent="n8BZFwkFFO_Z2MSDaQy5-101">
          <mxGeometry x="30" width="240" height="30" as="geometry" />
        </mxCell>
        <mxCell id="n8BZFwkFFO_Z2MSDaQy5-104" value="" style="shape=partialRectangle;collapsible=0;dropTarget=0;pointerEvents=0;fillColor=none;points=[[0,0.5],[1,0.5]];portConstraint=eastwest;top=0;left=0;right=0;bottom=0;" vertex="1" parent="n8BZFwkFFO_Z2MSDaQy5-73">
          <mxGeometry y="330" width="270" height="30" as="geometry" />
        </mxCell>
        <mxCell id="n8BZFwkFFO_Z2MSDaQy5-105" value="" style="shape=partialRectangle;overflow=hidden;connectable=0;fillColor=none;top=0;left=0;bottom=0;right=0;" vertex="1" parent="n8BZFwkFFO_Z2MSDaQy5-104">
          <mxGeometry width="30" height="30" as="geometry" />
        </mxCell>
        <mxCell id="n8BZFwkFFO_Z2MSDaQy5-106" value="streamerReady boolean" style="shape=partialRectangle;overflow=hidden;connectable=0;fillColor=none;top=0;left=0;bottom=0;right=0;align=left;spacingLeft=6;" vertex="1" parent="n8BZFwkFFO_Z2MSDaQy5-104">
          <mxGeometry x="30" width="240" height="30" as="geometry" />
        </mxCell>
        <mxCell id="n8BZFwkFFO_Z2MSDaQy5-107" value="" style="shape=partialRectangle;collapsible=0;dropTarget=0;pointerEvents=0;fillColor=none;points=[[0,0.5],[1,0.5]];portConstraint=eastwest;top=0;left=0;right=0;bottom=0;" vertex="1" parent="n8BZFwkFFO_Z2MSDaQy5-73">
          <mxGeometry y="360" width="270" height="30" as="geometry" />
        </mxCell>
        <mxCell id="n8BZFwkFFO_Z2MSDaQy5-108" value="" style="shape=partialRectangle;overflow=hidden;connectable=0;fillColor=none;top=0;left=0;bottom=0;right=0;" vertex="1" parent="n8BZFwkFFO_Z2MSDaQy5-107">
          <mxGeometry width="30" height="30" as="geometry" />
        </mxCell>
        <mxCell id="n8BZFwkFFO_Z2MSDaQy5-109" value="playAllRounds boolean" style="shape=partialRectangle;overflow=hidden;connectable=0;fillColor=none;top=0;left=0;bottom=0;right=0;align=left;spacingLeft=6;" vertex="1" parent="n8BZFwkFFO_Z2MSDaQy5-107">
          <mxGeometry x="30" width="240" height="30" as="geometry" />
        </mxCell>
        <mxCell id="n8BZFwkFFO_Z2MSDaQy5-110" value="" style="shape=partialRectangle;collapsible=0;dropTarget=0;pointerEvents=0;fillColor=none;points=[[0,0.5],[1,0.5]];portConstraint=eastwest;top=0;left=0;right=0;bottom=0;" vertex="1" parent="n8BZFwkFFO_Z2MSDaQy5-73">
          <mxGeometry y="390" width="270" height="30" as="geometry" />
        </mxCell>
        <mxCell id="n8BZFwkFFO_Z2MSDaQy5-111" value="" style="shape=partialRectangle;overflow=hidden;connectable=0;fillColor=none;top=0;left=0;bottom=0;right=0;" vertex="1" parent="n8BZFwkFFO_Z2MSDaQy5-110">
          <mxGeometry width="30" height="30" as="geometry" />
        </mxCell>
        <mxCell id="n8BZFwkFFO_Z2MSDaQy5-112" value="autostartMatch boolean" style="shape=partialRectangle;overflow=hidden;connectable=0;fillColor=none;top=0;left=0;bottom=0;right=0;align=left;spacingLeft=6;" vertex="1" parent="n8BZFwkFFO_Z2MSDaQy5-110">
          <mxGeometry x="30" width="240" height="30" as="geometry" />
        </mxCell>
        <mxCell id="n8BZFwkFFO_Z2MSDaQy5-113" value="" style="shape=partialRectangle;collapsible=0;dropTarget=0;pointerEvents=0;fillColor=none;points=[[0,0.5],[1,0.5]];portConstraint=eastwest;top=0;left=0;right=0;bottom=0;" vertex="1" parent="n8BZFwkFFO_Z2MSDaQy5-73">
          <mxGeometry y="420" width="270" height="30" as="geometry" />
        </mxCell>
        <mxCell id="n8BZFwkFFO_Z2MSDaQy5-114" value="" style="shape=partialRectangle;overflow=hidden;connectable=0;fillColor=none;top=0;left=0;bottom=0;right=0;" vertex="1" parent="n8BZFwkFFO_Z2MSDaQy5-113">
          <mxGeometry width="30" height="30" as="geometry" />
        </mxCell>
        <mxCell id="n8BZFwkFFO_Z2MSDaQy5-115" value="firstSideTerrorist char(1) NOT NULL" style="shape=partialRectangle;overflow=hidden;connectable=0;fillColor=none;top=0;left=0;bottom=0;right=0;align=left;spacingLeft=6;" vertex="1" parent="n8BZFwkFFO_Z2MSDaQy5-113">
          <mxGeometry x="30" width="240" height="30" as="geometry" />
        </mxCell>
        <mxCell id="n8BZFwkFFO_Z2MSDaQy5-116" value="" style="endArrow=classic;html=1;entryX=0;entryY=0.5;entryDx=0;entryDy=0;exitX=0;exitY=0.5;exitDx=0;exitDy=0;" edge="1" parent="1" source="CAHNvulc8Ei77Li_YzJQ-25" target="n8BZFwkFFO_Z2MSDaQy5-77">
          <mxGeometry width="50" height="50" relative="1" as="geometry">
            <mxPoint x="-350" y="220" as="sourcePoint" />
            <mxPoint x="30" y="440" as="targetPoint" />
            <Array as="points">
              <mxPoint x="-350" y="225" />
              <mxPoint x="-350" y="90" />
            </Array>
          </mxGeometry>
        </mxCell>
        <mxCell id="n8BZFwkFFO_Z2MSDaQy5-117" value="" style="endArrow=classic;html=1;entryX=0;entryY=0.5;entryDx=0;entryDy=0;exitX=0;exitY=0.5;exitDx=0;exitDy=0;" edge="1" parent="1" source="CAHNvulc8Ei77Li_YzJQ-25" target="n8BZFwkFFO_Z2MSDaQy5-80">
          <mxGeometry width="50" height="50" relative="1" as="geometry">
            <mxPoint x="-340" y="210" as="sourcePoint" />
            <mxPoint x="-50" y="455" as="targetPoint" />
            <Array as="points">
              <mxPoint x="-340" y="220" />
              <mxPoint x="-340" y="120" />
            </Array>
          </mxGeometry>
        </mxCell>
        <mxCell id="n8BZFwkFFO_Z2MSDaQy5-120" value="" style="endArrow=classic;html=1;" edge="1" parent="1" target="n8BZFwkFFO_Z2MSDaQy5-83">
          <mxGeometry width="50" height="50" relative="1" as="geometry">
            <mxPoint x="-425" y="151" as="sourcePoint" />
            <mxPoint x="-430" y="60" as="targetPoint" />
          </mxGeometry>
        </mxCell>
        <mxCell id="n8BZFwkFFO_Z2MSDaQy5-121" value="FK" style="shape=partialRectangle;overflow=hidden;connectable=0;fillColor=none;top=0;left=0;bottom=0;right=0;fontStyle=1;" vertex="1" parent="1">
          <mxGeometry x="-30" y="105" width="30" height="30" as="geometry" />
        </mxCell>
        <mxCell id="n8BZFwkFFO_Z2MSDaQy5-122" value="FK" style="shape=partialRectangle;overflow=hidden;connectable=0;fillColor=none;top=0;left=0;bottom=0;right=0;fontStyle=1;" vertex="1" parent="1">
          <mxGeometry x="-30" y="75" width="30" height="30" as="geometry" />
        </mxCell>
        <mxCell id="n8BZFwkFFO_Z2MSDaQy5-123" value="FK" style="shape=partialRectangle;overflow=hidden;connectable=0;fillColor=none;top=0;left=0;bottom=0;right=0;fontStyle=1;" vertex="1" parent="1">
          <mxGeometry x="-30" y="135" width="30" height="30" as="geometry" />
        </mxCell>
        <mxCell id="n8BZFwkFFO_Z2MSDaQy5-135" value="Stats" style="shape=table;startSize=30;container=1;collapsible=1;childLayout=tableLayout;fixedRows=1;rowLines=0;fontStyle=1;align=center;resizeLast=1;" vertex="1" parent="1">
          <mxGeometry x="330" y="440" width="160" height="640" as="geometry" />
        </mxCell>
        <mxCell id="n8BZFwkFFO_Z2MSDaQy5-136" value="" style="shape=partialRectangle;collapsible=0;dropTarget=0;pointerEvents=0;fillColor=none;points=[[0,0.5],[1,0.5]];portConstraint=eastwest;top=0;left=0;right=0;bottom=0;" vertex="1" parent="n8BZFwkFFO_Z2MSDaQy5-135">
          <mxGeometry y="30" width="160" height="30" as="geometry" />
        </mxCell>
        <mxCell id="n8BZFwkFFO_Z2MSDaQy5-137" value="" style="shape=partialRectangle;overflow=hidden;connectable=0;fillColor=none;top=0;left=0;bottom=0;right=0;" vertex="1" parent="n8BZFwkFFO_Z2MSDaQy5-136">
          <mxGeometry width="30" height="30" as="geometry" />
        </mxCell>
        <mxCell id="n8BZFwkFFO_Z2MSDaQy5-138" value="playerId int" style="shape=partialRectangle;overflow=hidden;connectable=0;fillColor=none;top=0;left=0;bottom=0;right=0;align=left;spacingLeft=6;fontStyle=5" vertex="1" parent="n8BZFwkFFO_Z2MSDaQy5-136">
          <mxGeometry x="30" width="130" height="30" as="geometry" />
        </mxCell>
        <mxCell id="n8BZFwkFFO_Z2MSDaQy5-139" value="" style="shape=partialRectangle;collapsible=0;dropTarget=0;pointerEvents=0;fillColor=none;points=[[0,0.5],[1,0.5]];portConstraint=eastwest;top=0;left=0;right=0;bottom=0;" vertex="1" parent="n8BZFwkFFO_Z2MSDaQy5-135">
          <mxGeometry y="60" width="160" height="30" as="geometry" />
        </mxCell>
        <mxCell id="n8BZFwkFFO_Z2MSDaQy5-140" value="" style="shape=partialRectangle;overflow=hidden;connectable=0;fillColor=none;top=0;left=0;bottom=0;right=0;" vertex="1" parent="n8BZFwkFFO_Z2MSDaQy5-139">
          <mxGeometry width="30" height="30" as="geometry" />
        </mxCell>
        <mxCell id="n8BZFwkFFO_Z2MSDaQy5-141" value="matchId int" style="shape=partialRectangle;overflow=hidden;connectable=0;fillColor=none;top=0;left=0;bottom=0;right=0;align=left;spacingLeft=6;fontStyle=5" vertex="1" parent="n8BZFwkFFO_Z2MSDaQy5-139">
          <mxGeometry x="30" width="130" height="30" as="geometry" />
        </mxCell>
        <mxCell id="n8BZFwkFFO_Z2MSDaQy5-142" value="" style="shape=partialRectangle;collapsible=0;dropTarget=0;pointerEvents=0;fillColor=none;points=[[0,0.5],[1,0.5]];portConstraint=eastwest;top=0;left=0;right=0;bottom=0;" vertex="1" parent="n8BZFwkFFO_Z2MSDaQy5-135">
          <mxGeometry y="90" width="160" height="30" as="geometry" />
        </mxCell>
        <mxCell id="n8BZFwkFFO_Z2MSDaQy5-143" value="" style="shape=partialRectangle;overflow=hidden;connectable=0;fillColor=none;top=0;left=0;bottom=0;right=0;" vertex="1" parent="n8BZFwkFFO_Z2MSDaQy5-142">
          <mxGeometry width="30" height="30" as="geometry" />
        </mxCell>
        <mxCell id="n8BZFwkFFO_Z2MSDaQy5-144" value="kill int" style="shape=partialRectangle;overflow=hidden;connectable=0;fillColor=none;top=0;left=0;bottom=0;right=0;align=left;spacingLeft=6;" vertex="1" parent="n8BZFwkFFO_Z2MSDaQy5-142">
          <mxGeometry x="30" width="130" height="30" as="geometry" />
        </mxCell>
        <mxCell id="n8BZFwkFFO_Z2MSDaQy5-145" value="" style="shape=partialRectangle;collapsible=0;dropTarget=0;pointerEvents=0;fillColor=none;points=[[0,0.5],[1,0.5]];portConstraint=eastwest;top=0;left=0;right=0;bottom=0;" vertex="1" parent="n8BZFwkFFO_Z2MSDaQy5-135">
          <mxGeometry y="120" width="160" height="30" as="geometry" />
        </mxCell>
        <mxCell id="n8BZFwkFFO_Z2MSDaQy5-146" value="" style="shape=partialRectangle;overflow=hidden;connectable=0;fillColor=none;top=0;left=0;bottom=0;right=0;" vertex="1" parent="n8BZFwkFFO_Z2MSDaQy5-145">
          <mxGeometry width="30" height="30" as="geometry" />
        </mxCell>
        <mxCell id="n8BZFwkFFO_Z2MSDaQy5-147" value="assist int" style="shape=partialRectangle;overflow=hidden;connectable=0;fillColor=none;top=0;left=0;bottom=0;right=0;align=left;spacingLeft=6;" vertex="1" parent="n8BZFwkFFO_Z2MSDaQy5-145">
          <mxGeometry x="30" width="130" height="30" as="geometry" />
        </mxCell>
        <mxCell id="n8BZFwkFFO_Z2MSDaQy5-148" value="" style="shape=partialRectangle;collapsible=0;dropTarget=0;pointerEvents=0;fillColor=none;points=[[0,0.5],[1,0.5]];portConstraint=eastwest;top=0;left=0;right=0;bottom=0;" vertex="1" parent="n8BZFwkFFO_Z2MSDaQy5-135">
          <mxGeometry y="150" width="160" height="30" as="geometry" />
        </mxCell>
        <mxCell id="n8BZFwkFFO_Z2MSDaQy5-149" value="" style="shape=partialRectangle;overflow=hidden;connectable=0;fillColor=none;top=0;left=0;bottom=0;right=0;" vertex="1" parent="n8BZFwkFFO_Z2MSDaQy5-148">
          <mxGeometry width="30" height="30" as="geometry" />
        </mxCell>
        <mxCell id="n8BZFwkFFO_Z2MSDaQy5-150" value="death int" style="shape=partialRectangle;overflow=hidden;connectable=0;fillColor=none;top=0;left=0;bottom=0;right=0;align=left;spacingLeft=6;" vertex="1" parent="n8BZFwkFFO_Z2MSDaQy5-148">
          <mxGeometry x="30" width="130" height="30" as="geometry" />
        </mxCell>
        <mxCell id="n8BZFwkFFO_Z2MSDaQy5-151" value="" style="shape=partialRectangle;collapsible=0;dropTarget=0;pointerEvents=0;fillColor=none;points=[[0,0.5],[1,0.5]];portConstraint=eastwest;top=0;left=0;right=0;bottom=0;" vertex="1" parent="n8BZFwkFFO_Z2MSDaQy5-135">
          <mxGeometry y="180" width="160" height="30" as="geometry" />
        </mxCell>
        <mxCell id="n8BZFwkFFO_Z2MSDaQy5-152" value="" style="shape=partialRectangle;overflow=hidden;connectable=0;fillColor=none;top=0;left=0;bottom=0;right=0;" vertex="1" parent="n8BZFwkFFO_Z2MSDaQy5-151">
          <mxGeometry width="30" height="30" as="geometry" />
        </mxCell>
        <mxCell id="n8BZFwkFFO_Z2MSDaQy5-153" value="headshot int" style="shape=partialRectangle;overflow=hidden;connectable=0;fillColor=none;top=0;left=0;bottom=0;right=0;align=left;spacingLeft=6;" vertex="1" parent="n8BZFwkFFO_Z2MSDaQy5-151">
          <mxGeometry x="30" width="130" height="30" as="geometry" />
        </mxCell>
        <mxCell id="n8BZFwkFFO_Z2MSDaQy5-154" value="" style="shape=partialRectangle;collapsible=0;dropTarget=0;pointerEvents=0;fillColor=none;points=[[0,0.5],[1,0.5]];portConstraint=eastwest;top=0;left=0;right=0;bottom=0;" vertex="1" parent="n8BZFwkFFO_Z2MSDaQy5-135">
          <mxGeometry y="210" width="160" height="30" as="geometry" />
        </mxCell>
        <mxCell id="n8BZFwkFFO_Z2MSDaQy5-155" value="" style="shape=partialRectangle;overflow=hidden;connectable=0;fillColor=none;top=0;left=0;bottom=0;right=0;" vertex="1" parent="n8BZFwkFFO_Z2MSDaQy5-154">
          <mxGeometry width="30" height="30" as="geometry" />
        </mxCell>
        <mxCell id="n8BZFwkFFO_Z2MSDaQy5-156" value="defuse int" style="shape=partialRectangle;overflow=hidden;connectable=0;fillColor=none;top=0;left=0;bottom=0;right=0;align=left;spacingLeft=6;" vertex="1" parent="n8BZFwkFFO_Z2MSDaQy5-154">
          <mxGeometry x="30" width="130" height="30" as="geometry" />
        </mxCell>
        <mxCell id="n8BZFwkFFO_Z2MSDaQy5-157" value="" style="shape=partialRectangle;collapsible=0;dropTarget=0;pointerEvents=0;fillColor=none;points=[[0,0.5],[1,0.5]];portConstraint=eastwest;top=0;left=0;right=0;bottom=0;" vertex="1" parent="n8BZFwkFFO_Z2MSDaQy5-135">
          <mxGeometry y="240" width="160" height="30" as="geometry" />
        </mxCell>
        <mxCell id="n8BZFwkFFO_Z2MSDaQy5-158" value="" style="shape=partialRectangle;overflow=hidden;connectable=0;fillColor=none;top=0;left=0;bottom=0;right=0;" vertex="1" parent="n8BZFwkFFO_Z2MSDaQy5-157">
          <mxGeometry width="30" height="30" as="geometry" />
        </mxCell>
        <mxCell id="n8BZFwkFFO_Z2MSDaQy5-159" value="bombe int" style="shape=partialRectangle;overflow=hidden;connectable=0;fillColor=none;top=0;left=0;bottom=0;right=0;align=left;spacingLeft=6;" vertex="1" parent="n8BZFwkFFO_Z2MSDaQy5-157">
          <mxGeometry x="30" width="130" height="30" as="geometry" />
        </mxCell>
        <mxCell id="n8BZFwkFFO_Z2MSDaQy5-160" value="" style="shape=partialRectangle;collapsible=0;dropTarget=0;pointerEvents=0;fillColor=none;points=[[0,0.5],[1,0.5]];portConstraint=eastwest;top=0;left=0;right=0;bottom=0;" vertex="1" parent="n8BZFwkFFO_Z2MSDaQy5-135">
          <mxGeometry y="270" width="160" height="30" as="geometry" />
        </mxCell>
        <mxCell id="n8BZFwkFFO_Z2MSDaQy5-161" value="" style="shape=partialRectangle;overflow=hidden;connectable=0;fillColor=none;top=0;left=0;bottom=0;right=0;" vertex="1" parent="n8BZFwkFFO_Z2MSDaQy5-160">
          <mxGeometry width="30" height="30" as="geometry" />
        </mxCell>
        <mxCell id="n8BZFwkFFO_Z2MSDaQy5-162" value="tk int" style="shape=partialRectangle;overflow=hidden;connectable=0;fillColor=none;top=0;left=0;bottom=0;right=0;align=left;spacingLeft=6;" vertex="1" parent="n8BZFwkFFO_Z2MSDaQy5-160">
          <mxGeometry x="30" width="130" height="30" as="geometry" />
        </mxCell>
        <mxCell id="n8BZFwkFFO_Z2MSDaQy5-163" value="" style="shape=partialRectangle;collapsible=0;dropTarget=0;pointerEvents=0;fillColor=none;points=[[0,0.5],[1,0.5]];portConstraint=eastwest;top=0;left=0;right=0;bottom=0;" vertex="1" parent="n8BZFwkFFO_Z2MSDaQy5-135">
          <mxGeometry y="300" width="160" height="30" as="geometry" />
        </mxCell>
        <mxCell id="n8BZFwkFFO_Z2MSDaQy5-164" value="" style="shape=partialRectangle;overflow=hidden;connectable=0;fillColor=none;top=0;left=0;bottom=0;right=0;" vertex="1" parent="n8BZFwkFFO_Z2MSDaQy5-163">
          <mxGeometry width="30" height="30" as="geometry" />
        </mxCell>
        <mxCell id="n8BZFwkFFO_Z2MSDaQy5-165" value="1v1 int" style="shape=partialRectangle;overflow=hidden;connectable=0;fillColor=none;top=0;left=0;bottom=0;right=0;align=left;spacingLeft=6;" vertex="1" parent="n8BZFwkFFO_Z2MSDaQy5-163">
          <mxGeometry x="30" width="130" height="30" as="geometry" />
        </mxCell>
        <mxCell id="n8BZFwkFFO_Z2MSDaQy5-166" value="" style="shape=partialRectangle;collapsible=0;dropTarget=0;pointerEvents=0;fillColor=none;points=[[0,0.5],[1,0.5]];portConstraint=eastwest;top=0;left=0;right=0;bottom=0;" vertex="1" parent="n8BZFwkFFO_Z2MSDaQy5-135">
          <mxGeometry y="330" width="160" height="30" as="geometry" />
        </mxCell>
        <mxCell id="n8BZFwkFFO_Z2MSDaQy5-167" value="" style="shape=partialRectangle;overflow=hidden;connectable=0;fillColor=none;top=0;left=0;bottom=0;right=0;" vertex="1" parent="n8BZFwkFFO_Z2MSDaQy5-166">
          <mxGeometry width="30" height="30" as="geometry" />
        </mxCell>
        <mxCell id="n8BZFwkFFO_Z2MSDaQy5-168" value="1v2 int" style="shape=partialRectangle;overflow=hidden;connectable=0;fillColor=none;top=0;left=0;bottom=0;right=0;align=left;spacingLeft=6;" vertex="1" parent="n8BZFwkFFO_Z2MSDaQy5-166">
          <mxGeometry x="30" width="130" height="30" as="geometry" />
        </mxCell>
        <mxCell id="n8BZFwkFFO_Z2MSDaQy5-169" value="" style="shape=partialRectangle;collapsible=0;dropTarget=0;pointerEvents=0;fillColor=none;points=[[0,0.5],[1,0.5]];portConstraint=eastwest;top=0;left=0;right=0;bottom=0;" vertex="1" parent="n8BZFwkFFO_Z2MSDaQy5-135">
          <mxGeometry y="360" width="160" height="30" as="geometry" />
        </mxCell>
        <mxCell id="n8BZFwkFFO_Z2MSDaQy5-170" value="" style="shape=partialRectangle;overflow=hidden;connectable=0;fillColor=none;top=0;left=0;bottom=0;right=0;" vertex="1" parent="n8BZFwkFFO_Z2MSDaQy5-169">
          <mxGeometry width="30" height="30" as="geometry" />
        </mxCell>
        <mxCell id="n8BZFwkFFO_Z2MSDaQy5-171" value="1v3 int" style="shape=partialRectangle;overflow=hidden;connectable=0;fillColor=none;top=0;left=0;bottom=0;right=0;align=left;spacingLeft=6;" vertex="1" parent="n8BZFwkFFO_Z2MSDaQy5-169">
          <mxGeometry x="30" width="130" height="30" as="geometry" />
        </mxCell>
        <mxCell id="n8BZFwkFFO_Z2MSDaQy5-172" value="" style="shape=partialRectangle;collapsible=0;dropTarget=0;pointerEvents=0;fillColor=none;points=[[0,0.5],[1,0.5]];portConstraint=eastwest;top=0;left=0;right=0;bottom=0;" vertex="1" parent="n8BZFwkFFO_Z2MSDaQy5-135">
          <mxGeometry y="390" width="160" height="30" as="geometry" />
        </mxCell>
        <mxCell id="n8BZFwkFFO_Z2MSDaQy5-173" value="" style="shape=partialRectangle;overflow=hidden;connectable=0;fillColor=none;top=0;left=0;bottom=0;right=0;" vertex="1" parent="n8BZFwkFFO_Z2MSDaQy5-172">
          <mxGeometry width="30" height="30" as="geometry" />
        </mxCell>
        <mxCell id="n8BZFwkFFO_Z2MSDaQy5-174" value="1v4 int" style="shape=partialRectangle;overflow=hidden;connectable=0;fillColor=none;top=0;left=0;bottom=0;right=0;align=left;spacingLeft=6;" vertex="1" parent="n8BZFwkFFO_Z2MSDaQy5-172">
          <mxGeometry x="30" width="130" height="30" as="geometry" />
        </mxCell>
        <mxCell id="n8BZFwkFFO_Z2MSDaQy5-175" value="" style="shape=partialRectangle;collapsible=0;dropTarget=0;pointerEvents=0;fillColor=none;points=[[0,0.5],[1,0.5]];portConstraint=eastwest;top=0;left=0;right=0;bottom=0;" vertex="1" parent="n8BZFwkFFO_Z2MSDaQy5-135">
          <mxGeometry y="420" width="160" height="30" as="geometry" />
        </mxCell>
        <mxCell id="n8BZFwkFFO_Z2MSDaQy5-176" value="" style="shape=partialRectangle;overflow=hidden;connectable=0;fillColor=none;top=0;left=0;bottom=0;right=0;" vertex="1" parent="n8BZFwkFFO_Z2MSDaQy5-175">
          <mxGeometry width="30" height="30" as="geometry" />
        </mxCell>
        <mxCell id="n8BZFwkFFO_Z2MSDaQy5-177" value="1v5 int" style="shape=partialRectangle;overflow=hidden;connectable=0;fillColor=none;top=0;left=0;bottom=0;right=0;align=left;spacingLeft=6;" vertex="1" parent="n8BZFwkFFO_Z2MSDaQy5-175">
          <mxGeometry x="30" width="130" height="30" as="geometry" />
        </mxCell>
        <mxCell id="n8BZFwkFFO_Z2MSDaQy5-178" value="" style="shape=partialRectangle;collapsible=0;dropTarget=0;pointerEvents=0;fillColor=none;points=[[0,0.5],[1,0.5]];portConstraint=eastwest;top=0;left=0;right=0;bottom=0;" vertex="1" parent="n8BZFwkFFO_Z2MSDaQy5-135">
          <mxGeometry y="450" width="160" height="30" as="geometry" />
        </mxCell>
        <mxCell id="n8BZFwkFFO_Z2MSDaQy5-179" value="" style="shape=partialRectangle;overflow=hidden;connectable=0;fillColor=none;top=0;left=0;bottom=0;right=0;" vertex="1" parent="n8BZFwkFFO_Z2MSDaQy5-178">
          <mxGeometry width="30" height="30" as="geometry" />
        </mxCell>
        <mxCell id="n8BZFwkFFO_Z2MSDaQy5-180" value="1K int" style="shape=partialRectangle;overflow=hidden;connectable=0;fillColor=none;top=0;left=0;bottom=0;right=0;align=left;spacingLeft=6;" vertex="1" parent="n8BZFwkFFO_Z2MSDaQy5-178">
          <mxGeometry x="30" width="130" height="30" as="geometry" />
        </mxCell>
        <mxCell id="n8BZFwkFFO_Z2MSDaQy5-181" value="" style="shape=partialRectangle;collapsible=0;dropTarget=0;pointerEvents=0;fillColor=none;points=[[0,0.5],[1,0.5]];portConstraint=eastwest;top=0;left=0;right=0;bottom=0;" vertex="1" parent="n8BZFwkFFO_Z2MSDaQy5-135">
          <mxGeometry y="480" width="160" height="30" as="geometry" />
        </mxCell>
        <mxCell id="n8BZFwkFFO_Z2MSDaQy5-182" value="" style="shape=partialRectangle;overflow=hidden;connectable=0;fillColor=none;top=0;left=0;bottom=0;right=0;" vertex="1" parent="n8BZFwkFFO_Z2MSDaQy5-181">
          <mxGeometry width="30" height="30" as="geometry" />
        </mxCell>
        <mxCell id="n8BZFwkFFO_Z2MSDaQy5-183" value="2K int" style="shape=partialRectangle;overflow=hidden;connectable=0;fillColor=none;top=0;left=0;bottom=0;right=0;align=left;spacingLeft=6;" vertex="1" parent="n8BZFwkFFO_Z2MSDaQy5-181">
          <mxGeometry x="30" width="130" height="30" as="geometry" />
        </mxCell>
        <mxCell id="n8BZFwkFFO_Z2MSDaQy5-184" value="" style="shape=partialRectangle;collapsible=0;dropTarget=0;pointerEvents=0;fillColor=none;points=[[0,0.5],[1,0.5]];portConstraint=eastwest;top=0;left=0;right=0;bottom=0;" vertex="1" parent="n8BZFwkFFO_Z2MSDaQy5-135">
          <mxGeometry y="510" width="160" height="30" as="geometry" />
        </mxCell>
        <mxCell id="n8BZFwkFFO_Z2MSDaQy5-185" value="" style="shape=partialRectangle;overflow=hidden;connectable=0;fillColor=none;top=0;left=0;bottom=0;right=0;" vertex="1" parent="n8BZFwkFFO_Z2MSDaQy5-184">
          <mxGeometry width="30" height="30" as="geometry" />
        </mxCell>
        <mxCell id="n8BZFwkFFO_Z2MSDaQy5-186" value="3K int" style="shape=partialRectangle;overflow=hidden;connectable=0;fillColor=none;top=0;left=0;bottom=0;right=0;align=left;spacingLeft=6;" vertex="1" parent="n8BZFwkFFO_Z2MSDaQy5-184">
          <mxGeometry x="30" width="130" height="30" as="geometry" />
        </mxCell>
        <mxCell id="n8BZFwkFFO_Z2MSDaQy5-187" value="" style="shape=partialRectangle;collapsible=0;dropTarget=0;pointerEvents=0;fillColor=none;points=[[0,0.5],[1,0.5]];portConstraint=eastwest;top=0;left=0;right=0;bottom=0;" vertex="1" parent="n8BZFwkFFO_Z2MSDaQy5-135">
          <mxGeometry y="540" width="160" height="30" as="geometry" />
        </mxCell>
        <mxCell id="n8BZFwkFFO_Z2MSDaQy5-188" value="" style="shape=partialRectangle;overflow=hidden;connectable=0;fillColor=none;top=0;left=0;bottom=0;right=0;" vertex="1" parent="n8BZFwkFFO_Z2MSDaQy5-187">
          <mxGeometry width="30" height="30" as="geometry" />
        </mxCell>
        <mxCell id="n8BZFwkFFO_Z2MSDaQy5-189" value="4K int" style="shape=partialRectangle;overflow=hidden;connectable=0;fillColor=none;top=0;left=0;bottom=0;right=0;align=left;spacingLeft=6;" vertex="1" parent="n8BZFwkFFO_Z2MSDaQy5-187">
          <mxGeometry x="30" width="130" height="30" as="geometry" />
        </mxCell>
        <mxCell id="n8BZFwkFFO_Z2MSDaQy5-190" value="" style="shape=partialRectangle;collapsible=0;dropTarget=0;pointerEvents=0;fillColor=none;points=[[0,0.5],[1,0.5]];portConstraint=eastwest;top=0;left=0;right=0;bottom=0;" vertex="1" parent="n8BZFwkFFO_Z2MSDaQy5-135">
          <mxGeometry y="570" width="160" height="30" as="geometry" />
        </mxCell>
        <mxCell id="n8BZFwkFFO_Z2MSDaQy5-191" value="" style="shape=partialRectangle;overflow=hidden;connectable=0;fillColor=none;top=0;left=0;bottom=0;right=0;" vertex="1" parent="n8BZFwkFFO_Z2MSDaQy5-190">
          <mxGeometry width="30" height="30" as="geometry" />
        </mxCell>
        <mxCell id="n8BZFwkFFO_Z2MSDaQy5-192" value="5K int" style="shape=partialRectangle;overflow=hidden;connectable=0;fillColor=none;top=0;left=0;bottom=0;right=0;align=left;spacingLeft=6;" vertex="1" parent="n8BZFwkFFO_Z2MSDaQy5-190">
          <mxGeometry x="30" width="130" height="30" as="geometry" />
        </mxCell>
        <mxCell id="n8BZFwkFFO_Z2MSDaQy5-193" value="" style="shape=partialRectangle;collapsible=0;dropTarget=0;pointerEvents=0;fillColor=none;points=[[0,0.5],[1,0.5]];portConstraint=eastwest;top=0;left=0;right=0;bottom=0;" vertex="1" parent="n8BZFwkFFO_Z2MSDaQy5-135">
          <mxGeometry y="600" width="160" height="30" as="geometry" />
        </mxCell>
        <mxCell id="n8BZFwkFFO_Z2MSDaQy5-194" value="" style="shape=partialRectangle;overflow=hidden;connectable=0;fillColor=none;top=0;left=0;bottom=0;right=0;" vertex="1" parent="n8BZFwkFFO_Z2MSDaQy5-193">
          <mxGeometry width="30" height="30" as="geometry" />
        </mxCell>
        <mxCell id="n8BZFwkFFO_Z2MSDaQy5-195" value="FK int" style="shape=partialRectangle;overflow=hidden;connectable=0;fillColor=none;top=0;left=0;bottom=0;right=0;align=left;spacingLeft=6;" vertex="1" parent="n8BZFwkFFO_Z2MSDaQy5-193">
          <mxGeometry x="30" width="130" height="30" as="geometry" />
        </mxCell>
        <mxCell id="n8BZFwkFFO_Z2MSDaQy5-196" value="PK" style="shape=partialRectangle;overflow=hidden;connectable=0;fillColor=none;top=0;left=0;bottom=0;right=0;fontStyle=1;" vertex="1" parent="1">
          <mxGeometry x="330" y="470" width="30" height="30" as="geometry" />
        </mxCell>
        <mxCell id="n8BZFwkFFO_Z2MSDaQy5-197" value="PK" style="shape=partialRectangle;overflow=hidden;connectable=0;fillColor=none;top=0;left=0;bottom=0;right=0;fontStyle=1;" vertex="1" parent="1">
          <mxGeometry x="330" y="500" width="30" height="30" as="geometry" />
        </mxCell>
        <mxCell id="n8BZFwkFFO_Z2MSDaQy5-198" value="" style="endArrow=none;html=1;entryX=1;entryY=0.967;entryDx=0;entryDy=0;entryPerimeter=0;" edge="1" parent="1" target="n8BZFwkFFO_Z2MSDaQy5-139">
          <mxGeometry width="50" height="50" relative="1" as="geometry">
            <mxPoint x="330" y="529" as="sourcePoint" />
            <mxPoint x="320" y="370" as="targetPoint" />
          </mxGeometry>
        </mxCell>
        <mxCell id="n8BZFwkFFO_Z2MSDaQy5-199" value="" style="endArrow=none;html=1;entryX=1;entryY=0.967;entryDx=0;entryDy=0;entryPerimeter=0;" edge="1" parent="1">
          <mxGeometry width="50" height="50" relative="1" as="geometry">
            <mxPoint x="330" y="500" as="sourcePoint" />
            <mxPoint x="490" y="500.01" as="targetPoint" />
          </mxGeometry>
        </mxCell>
        <mxCell id="n8BZFwkFFO_Z2MSDaQy5-200" value="" style="endArrow=classic;html=1;exitX=1;exitY=0.5;exitDx=0;exitDy=0;" edge="1" parent="1" source="n8BZFwkFFO_Z2MSDaQy5-74">
          <mxGeometry width="50" height="50" relative="1" as="geometry">
            <mxPoint x="120" y="520" as="sourcePoint" />
            <mxPoint x="330" y="510" as="targetPoint" />
            <Array as="points">
              <mxPoint x="260" y="60" />
              <mxPoint x="260" y="510" />
            </Array>
          </mxGeometry>
        </mxCell>
        <mxCell id="n8BZFwkFFO_Z2MSDaQy5-203" value="Player" style="shape=table;startSize=30;container=1;collapsible=1;childLayout=tableLayout;fixedRows=1;rowLines=0;fontStyle=1;align=center;resizeLast=1;" vertex="1" parent="1">
          <mxGeometry x="-5" y="630" width="220" height="160" as="geometry" />
        </mxCell>
        <mxCell id="n8BZFwkFFO_Z2MSDaQy5-204" value="" style="shape=partialRectangle;collapsible=0;dropTarget=0;pointerEvents=0;fillColor=none;points=[[0,0.5],[1,0.5]];portConstraint=eastwest;top=0;left=0;right=0;bottom=1;" vertex="1" parent="n8BZFwkFFO_Z2MSDaQy5-203">
          <mxGeometry y="30" width="220" height="30" as="geometry" />
        </mxCell>
        <mxCell id="n8BZFwkFFO_Z2MSDaQy5-205" value="PK" style="shape=partialRectangle;overflow=hidden;connectable=0;fillColor=none;top=0;left=0;bottom=0;right=0;fontStyle=1;" vertex="1" parent="n8BZFwkFFO_Z2MSDaQy5-204">
          <mxGeometry width="30" height="30" as="geometry" />
        </mxCell>
        <mxCell id="n8BZFwkFFO_Z2MSDaQy5-206" value="id int NOT NULL " style="shape=partialRectangle;overflow=hidden;connectable=0;fillColor=none;top=0;left=0;bottom=0;right=0;align=left;spacingLeft=6;fontStyle=5;" vertex="1" parent="n8BZFwkFFO_Z2MSDaQy5-204">
          <mxGeometry x="30" width="190" height="30" as="geometry" />
        </mxCell>
        <mxCell id="n8BZFwkFFO_Z2MSDaQy5-207" value="" style="shape=partialRectangle;collapsible=0;dropTarget=0;pointerEvents=0;fillColor=none;points=[[0,0.5],[1,0.5]];portConstraint=eastwest;top=0;left=0;right=0;bottom=0;" vertex="1" parent="n8BZFwkFFO_Z2MSDaQy5-203">
          <mxGeometry y="60" width="220" height="30" as="geometry" />
        </mxCell>
        <mxCell id="n8BZFwkFFO_Z2MSDaQy5-208" value="" style="shape=partialRectangle;overflow=hidden;connectable=0;fillColor=none;top=0;left=0;bottom=0;right=0;" vertex="1" parent="n8BZFwkFFO_Z2MSDaQy5-207">
          <mxGeometry width="30" height="30" as="geometry" />
        </mxCell>
        <mxCell id="n8BZFwkFFO_Z2MSDaQy5-209" value="username char(50) NOT NULL" style="shape=partialRectangle;overflow=hidden;connectable=0;fillColor=none;top=0;left=0;bottom=0;right=0;align=left;spacingLeft=6;" vertex="1" parent="n8BZFwkFFO_Z2MSDaQy5-207">
          <mxGeometry x="30" width="190" height="30" as="geometry" />
        </mxCell>
        <mxCell id="n8BZFwkFFO_Z2MSDaQy5-214" value="" style="endArrow=classic;html=1;exitX=0;exitY=0.5;exitDx=0;exitDy=0;" edge="1" parent="1" source="CAHNvulc8Ei77Li_YzJQ-25">
          <mxGeometry width="50" height="50" relative="1" as="geometry">
            <mxPoint x="-230" y="630" as="sourcePoint" />
            <mxPoint x="-5" y="730" as="targetPoint" />
            <Array as="points">
              <mxPoint x="-350" y="230" />
              <mxPoint x="-350" y="730" />
            </Array>
          </mxGeometry>
        </mxCell>
        <mxCell id="n8BZFwkFFO_Z2MSDaQy5-215" value="idTeam int" style="shape=partialRectangle;overflow=hidden;connectable=0;fillColor=none;top=0;left=0;bottom=0;right=0;align=left;spacingLeft=6;" vertex="1" parent="1">
          <mxGeometry x="25" y="720" width="185" height="30" as="geometry" />
        </mxCell>
        <mxCell id="n8BZFwkFFO_Z2MSDaQy5-216" value="FK" style="shape=partialRectangle;overflow=hidden;connectable=0;fillColor=none;top=0;left=0;bottom=0;right=0;fontStyle=1;" vertex="1" parent="1">
          <mxGeometry x="-5" y="720" width="30" height="30" as="geometry" />
        </mxCell>
        <mxCell id="n8BZFwkFFO_Z2MSDaQy5-217" value="" style="endArrow=classic;html=1;exitX=1;exitY=0.5;exitDx=0;exitDy=0;" edge="1" parent="1" source="n8BZFwkFFO_Z2MSDaQy5-204">
          <mxGeometry width="50" height="50" relative="1" as="geometry">
            <mxPoint x="220" y="690" as="sourcePoint" />
            <mxPoint x="330" y="480" as="targetPoint" />
            <Array as="points">
              <mxPoint x="250" y="675" />
              <mxPoint x="250" y="480" />
            </Array>
          </mxGeometry>
        </mxCell>
        <mxCell id="n8BZFwkFFO_Z2MSDaQy5-218" value="Kill" style="shape=table;startSize=30;container=1;collapsible=1;childLayout=tableLayout;fixedRows=1;rowLines=0;fontStyle=1;align=center;resizeLast=1;" vertex="1" parent="1">
          <mxGeometry x="-610" y="320" width="160" height="370" as="geometry" />
        </mxCell>
        <mxCell id="n8BZFwkFFO_Z2MSDaQy5-219" value="" style="shape=partialRectangle;collapsible=0;dropTarget=0;pointerEvents=0;fillColor=none;points=[[0,0.5],[1,0.5]];portConstraint=eastwest;top=0;left=0;right=0;bottom=1;" vertex="1" parent="n8BZFwkFFO_Z2MSDaQy5-218">
          <mxGeometry y="30" width="160" height="30" as="geometry" />
        </mxCell>
        <mxCell id="n8BZFwkFFO_Z2MSDaQy5-220" value="PK" style="shape=partialRectangle;overflow=hidden;connectable=0;fillColor=none;top=0;left=0;bottom=0;right=0;fontStyle=1;" vertex="1" parent="n8BZFwkFFO_Z2MSDaQy5-219">
          <mxGeometry width="30" height="30" as="geometry" />
        </mxCell>
        <mxCell id="n8BZFwkFFO_Z2MSDaQy5-221" value="killId int " style="shape=partialRectangle;overflow=hidden;connectable=0;fillColor=none;top=0;left=0;bottom=0;right=0;align=left;spacingLeft=6;fontStyle=5;" vertex="1" parent="n8BZFwkFFO_Z2MSDaQy5-219">
          <mxGeometry x="30" width="130" height="30" as="geometry" />
        </mxCell>
        <mxCell id="n8BZFwkFFO_Z2MSDaQy5-222" value="" style="shape=partialRectangle;collapsible=0;dropTarget=0;pointerEvents=0;fillColor=none;points=[[0,0.5],[1,0.5]];portConstraint=eastwest;top=0;left=0;right=0;bottom=0;" vertex="1" parent="n8BZFwkFFO_Z2MSDaQy5-218">
          <mxGeometry y="60" width="160" height="30" as="geometry" />
        </mxCell>
        <mxCell id="n8BZFwkFFO_Z2MSDaQy5-223" value="" style="shape=partialRectangle;overflow=hidden;connectable=0;fillColor=none;top=0;left=0;bottom=0;right=0;" vertex="1" parent="n8BZFwkFFO_Z2MSDaQy5-222">
          <mxGeometry width="30" height="30" as="geometry" />
        </mxCell>
        <mxCell id="n8BZFwkFFO_Z2MSDaQy5-224" value="killX int" style="shape=partialRectangle;overflow=hidden;connectable=0;fillColor=none;top=0;left=0;bottom=0;right=0;align=left;spacingLeft=6;" vertex="1" parent="n8BZFwkFFO_Z2MSDaQy5-222">
          <mxGeometry x="30" width="130" height="30" as="geometry" />
        </mxCell>
        <mxCell id="n8BZFwkFFO_Z2MSDaQy5-225" value="" style="shape=partialRectangle;collapsible=0;dropTarget=0;pointerEvents=0;fillColor=none;points=[[0,0.5],[1,0.5]];portConstraint=eastwest;top=0;left=0;right=0;bottom=0;" vertex="1" parent="n8BZFwkFFO_Z2MSDaQy5-218">
          <mxGeometry y="90" width="160" height="30" as="geometry" />
        </mxCell>
        <mxCell id="n8BZFwkFFO_Z2MSDaQy5-226" value="" style="shape=partialRectangle;overflow=hidden;connectable=0;fillColor=none;top=0;left=0;bottom=0;right=0;" vertex="1" parent="n8BZFwkFFO_Z2MSDaQy5-225">
          <mxGeometry width="30" height="30" as="geometry" />
        </mxCell>
        <mxCell id="n8BZFwkFFO_Z2MSDaQy5-227" value="killY int" style="shape=partialRectangle;overflow=hidden;connectable=0;fillColor=none;top=0;left=0;bottom=0;right=0;align=left;spacingLeft=6;" vertex="1" parent="n8BZFwkFFO_Z2MSDaQy5-225">
          <mxGeometry x="30" width="130" height="30" as="geometry" />
        </mxCell>
        <mxCell id="n8BZFwkFFO_Z2MSDaQy5-228" value="" style="shape=partialRectangle;collapsible=0;dropTarget=0;pointerEvents=0;fillColor=none;points=[[0,0.5],[1,0.5]];portConstraint=eastwest;top=0;left=0;right=0;bottom=0;" vertex="1" parent="n8BZFwkFFO_Z2MSDaQy5-218">
          <mxGeometry y="120" width="160" height="30" as="geometry" />
        </mxCell>
        <mxCell id="n8BZFwkFFO_Z2MSDaQy5-229" value="" style="shape=partialRectangle;overflow=hidden;connectable=0;fillColor=none;top=0;left=0;bottom=0;right=0;" vertex="1" parent="n8BZFwkFFO_Z2MSDaQy5-228">
          <mxGeometry width="30" height="30" as="geometry" />
        </mxCell>
        <mxCell id="n8BZFwkFFO_Z2MSDaQy5-230" value="killZ int" style="shape=partialRectangle;overflow=hidden;connectable=0;fillColor=none;top=0;left=0;bottom=0;right=0;align=left;spacingLeft=6;" vertex="1" parent="n8BZFwkFFO_Z2MSDaQy5-228">
          <mxGeometry x="30" width="130" height="30" as="geometry" />
        </mxCell>
        <mxCell id="n8BZFwkFFO_Z2MSDaQy5-231" value="" style="shape=partialRectangle;collapsible=0;dropTarget=0;pointerEvents=0;fillColor=none;points=[[0,0.5],[1,0.5]];portConstraint=eastwest;top=0;left=0;right=0;bottom=0;" vertex="1" parent="n8BZFwkFFO_Z2MSDaQy5-218">
          <mxGeometry y="150" width="160" height="30" as="geometry" />
        </mxCell>
        <mxCell id="n8BZFwkFFO_Z2MSDaQy5-232" value="" style="shape=partialRectangle;overflow=hidden;connectable=0;fillColor=none;top=0;left=0;bottom=0;right=0;" vertex="1" parent="n8BZFwkFFO_Z2MSDaQy5-231">
          <mxGeometry width="30" height="30" as="geometry" />
        </mxCell>
        <mxCell id="n8BZFwkFFO_Z2MSDaQy5-233" value="killerX int" style="shape=partialRectangle;overflow=hidden;connectable=0;fillColor=none;top=0;left=0;bottom=0;right=0;align=left;spacingLeft=6;" vertex="1" parent="n8BZFwkFFO_Z2MSDaQy5-231">
          <mxGeometry x="30" width="130" height="30" as="geometry" />
        </mxCell>
        <mxCell id="n8BZFwkFFO_Z2MSDaQy5-234" value="" style="shape=partialRectangle;collapsible=0;dropTarget=0;pointerEvents=0;fillColor=none;points=[[0,0.5],[1,0.5]];portConstraint=eastwest;top=0;left=0;right=0;bottom=0;" vertex="1" parent="n8BZFwkFFO_Z2MSDaQy5-218">
          <mxGeometry y="180" width="160" height="30" as="geometry" />
        </mxCell>
        <mxCell id="n8BZFwkFFO_Z2MSDaQy5-235" value="" style="shape=partialRectangle;overflow=hidden;connectable=0;fillColor=none;top=0;left=0;bottom=0;right=0;" vertex="1" parent="n8BZFwkFFO_Z2MSDaQy5-234">
          <mxGeometry width="30" height="30" as="geometry" />
        </mxCell>
        <mxCell id="n8BZFwkFFO_Z2MSDaQy5-236" value="killerY int" style="shape=partialRectangle;overflow=hidden;connectable=0;fillColor=none;top=0;left=0;bottom=0;right=0;align=left;spacingLeft=6;" vertex="1" parent="n8BZFwkFFO_Z2MSDaQy5-234">
          <mxGeometry x="30" width="130" height="30" as="geometry" />
        </mxCell>
        <mxCell id="n8BZFwkFFO_Z2MSDaQy5-237" value="" style="shape=partialRectangle;collapsible=0;dropTarget=0;pointerEvents=0;fillColor=none;points=[[0,0.5],[1,0.5]];portConstraint=eastwest;top=0;left=0;right=0;bottom=0;" vertex="1" parent="n8BZFwkFFO_Z2MSDaQy5-218">
          <mxGeometry y="210" width="160" height="30" as="geometry" />
        </mxCell>
        <mxCell id="n8BZFwkFFO_Z2MSDaQy5-238" value="" style="shape=partialRectangle;overflow=hidden;connectable=0;fillColor=none;top=0;left=0;bottom=0;right=0;" vertex="1" parent="n8BZFwkFFO_Z2MSDaQy5-237">
          <mxGeometry width="30" height="30" as="geometry" />
        </mxCell>
        <mxCell id="n8BZFwkFFO_Z2MSDaQy5-239" value="killerZ int" style="shape=partialRectangle;overflow=hidden;connectable=0;fillColor=none;top=0;left=0;bottom=0;right=0;align=left;spacingLeft=6;" vertex="1" parent="n8BZFwkFFO_Z2MSDaQy5-237">
          <mxGeometry x="30" width="130" height="30" as="geometry" />
        </mxCell>
        <mxCell id="n8BZFwkFFO_Z2MSDaQy5-240" value="" style="shape=partialRectangle;collapsible=0;dropTarget=0;pointerEvents=0;fillColor=none;points=[[0,0.5],[1,0.5]];portConstraint=eastwest;top=0;left=0;right=0;bottom=0;" vertex="1" parent="n8BZFwkFFO_Z2MSDaQy5-218">
          <mxGeometry y="240" width="160" height="30" as="geometry" />
        </mxCell>
        <mxCell id="n8BZFwkFFO_Z2MSDaQy5-241" value="" style="shape=partialRectangle;overflow=hidden;connectable=0;fillColor=none;top=0;left=0;bottom=0;right=0;" vertex="1" parent="n8BZFwkFFO_Z2MSDaQy5-240">
          <mxGeometry width="30" height="30" as="geometry" />
        </mxCell>
        <mxCell id="n8BZFwkFFO_Z2MSDaQy5-242" value="weapon char(255)" style="shape=partialRectangle;overflow=hidden;connectable=0;fillColor=none;top=0;left=0;bottom=0;right=0;align=left;spacingLeft=6;" vertex="1" parent="n8BZFwkFFO_Z2MSDaQy5-240">
          <mxGeometry x="30" width="130" height="30" as="geometry" />
        </mxCell>
        <mxCell id="n8BZFwkFFO_Z2MSDaQy5-243" value="" style="shape=partialRectangle;collapsible=0;dropTarget=0;pointerEvents=0;fillColor=none;points=[[0,0.5],[1,0.5]];portConstraint=eastwest;top=0;left=0;right=0;bottom=0;" vertex="1" parent="n8BZFwkFFO_Z2MSDaQy5-218">
          <mxGeometry y="270" width="160" height="30" as="geometry" />
        </mxCell>
        <mxCell id="n8BZFwkFFO_Z2MSDaQy5-244" value="" style="shape=partialRectangle;overflow=hidden;connectable=0;fillColor=none;top=0;left=0;bottom=0;right=0;" vertex="1" parent="n8BZFwkFFO_Z2MSDaQy5-243">
          <mxGeometry width="30" height="30" as="geometry" />
        </mxCell>
        <mxCell id="n8BZFwkFFO_Z2MSDaQy5-245" value="killedId int" style="shape=partialRectangle;overflow=hidden;connectable=0;fillColor=none;top=0;left=0;bottom=0;right=0;align=left;spacingLeft=6;" vertex="1" parent="n8BZFwkFFO_Z2MSDaQy5-243">
          <mxGeometry x="30" width="130" height="30" as="geometry" />
        </mxCell>
        <mxCell id="n8BZFwkFFO_Z2MSDaQy5-246" value="" style="shape=partialRectangle;collapsible=0;dropTarget=0;pointerEvents=0;fillColor=none;points=[[0,0.5],[1,0.5]];portConstraint=eastwest;top=0;left=0;right=0;bottom=0;" vertex="1" parent="n8BZFwkFFO_Z2MSDaQy5-218">
          <mxGeometry y="300" width="160" height="30" as="geometry" />
        </mxCell>
        <mxCell id="n8BZFwkFFO_Z2MSDaQy5-247" value="" style="shape=partialRectangle;overflow=hidden;connectable=0;fillColor=none;top=0;left=0;bottom=0;right=0;" vertex="1" parent="n8BZFwkFFO_Z2MSDaQy5-246">
          <mxGeometry width="30" height="30" as="geometry" />
        </mxCell>
        <mxCell id="n8BZFwkFFO_Z2MSDaQy5-248" value="killerId int" style="shape=partialRectangle;overflow=hidden;connectable=0;fillColor=none;top=0;left=0;bottom=0;right=0;align=left;spacingLeft=6;" vertex="1" parent="n8BZFwkFFO_Z2MSDaQy5-246">
          <mxGeometry x="30" width="130" height="30" as="geometry" />
        </mxCell>
        <mxCell id="n8BZFwkFFO_Z2MSDaQy5-249" value="" style="shape=partialRectangle;collapsible=0;dropTarget=0;pointerEvents=0;fillColor=none;points=[[0,0.5],[1,0.5]];portConstraint=eastwest;top=0;left=0;right=0;bottom=0;" vertex="1" parent="n8BZFwkFFO_Z2MSDaQy5-218">
          <mxGeometry y="330" width="160" height="30" as="geometry" />
        </mxCell>
        <mxCell id="n8BZFwkFFO_Z2MSDaQy5-250" value="" style="shape=partialRectangle;overflow=hidden;connectable=0;fillColor=none;top=0;left=0;bottom=0;right=0;" vertex="1" parent="n8BZFwkFFO_Z2MSDaQy5-249">
          <mxGeometry width="30" height="30" as="geometry" />
        </mxCell>
        <mxCell id="n8BZFwkFFO_Z2MSDaQy5-251" value="isHeadshot boolean" style="shape=partialRectangle;overflow=hidden;connectable=0;fillColor=none;top=0;left=0;bottom=0;right=0;align=left;spacingLeft=6;" vertex="1" parent="n8BZFwkFFO_Z2MSDaQy5-249">
          <mxGeometry x="30" width="130" height="30" as="geometry" />
        </mxCell>
        <mxCell id="n8BZFwkFFO_Z2MSDaQy5-252" value="Assist" style="shape=table;startSize=30;container=1;collapsible=1;childLayout=tableLayout;fixedRows=1;rowLines=0;fontStyle=1;align=center;resizeLast=1;" vertex="1" parent="1">
          <mxGeometry x="-585" y="770" width="110" height="100" as="geometry" />
        </mxCell>
        <mxCell id="n8BZFwkFFO_Z2MSDaQy5-253" value="" style="shape=partialRectangle;collapsible=0;dropTarget=0;pointerEvents=0;fillColor=none;points=[[0,0.5],[1,0.5]];portConstraint=eastwest;top=0;left=0;right=0;bottom=0;" vertex="1" parent="n8BZFwkFFO_Z2MSDaQy5-252">
          <mxGeometry y="30" width="110" height="30" as="geometry" />
        </mxCell>
        <mxCell id="n8BZFwkFFO_Z2MSDaQy5-254" value="" style="shape=partialRectangle;overflow=hidden;connectable=0;fillColor=none;top=0;left=0;bottom=0;right=0;" vertex="1" parent="n8BZFwkFFO_Z2MSDaQy5-253">
          <mxGeometry width="30" height="30" as="geometry" />
        </mxCell>
        <mxCell id="n8BZFwkFFO_Z2MSDaQy5-255" value="killId int" style="shape=partialRectangle;overflow=hidden;connectable=0;fillColor=none;top=0;left=0;bottom=0;right=0;align=left;spacingLeft=6;" vertex="1" parent="n8BZFwkFFO_Z2MSDaQy5-253">
          <mxGeometry x="30" width="80" height="30" as="geometry" />
        </mxCell>
        <mxCell id="n8BZFwkFFO_Z2MSDaQy5-256" value="" style="shape=partialRectangle;collapsible=0;dropTarget=0;pointerEvents=0;fillColor=none;points=[[0,0.5],[1,0.5]];portConstraint=eastwest;top=0;left=0;right=0;bottom=0;" vertex="1" parent="n8BZFwkFFO_Z2MSDaQy5-252">
          <mxGeometry y="60" width="110" height="30" as="geometry" />
        </mxCell>
        <mxCell id="n8BZFwkFFO_Z2MSDaQy5-257" value="" style="shape=partialRectangle;overflow=hidden;connectable=0;fillColor=none;top=0;left=0;bottom=0;right=0;" vertex="1" parent="n8BZFwkFFO_Z2MSDaQy5-256">
          <mxGeometry width="30" height="30" as="geometry" />
        </mxCell>
        <mxCell id="n8BZFwkFFO_Z2MSDaQy5-258" value="playerId int" style="shape=partialRectangle;overflow=hidden;connectable=0;fillColor=none;top=0;left=0;bottom=0;right=0;align=left;spacingLeft=6;" vertex="1" parent="n8BZFwkFFO_Z2MSDaQy5-256">
          <mxGeometry x="30" width="80" height="30" as="geometry" />
        </mxCell>
        <mxCell id="n8BZFwkFFO_Z2MSDaQy5-259" value="" style="endArrow=classic;html=1;exitX=0;exitY=0.5;exitDx=0;exitDy=0;entryX=0;entryY=0.5;entryDx=0;entryDy=0;" edge="1" parent="1" source="n8BZFwkFFO_Z2MSDaQy5-219" target="n8BZFwkFFO_Z2MSDaQy5-253">
          <mxGeometry relative="1" as="geometry">
            <mxPoint x="-660" y="360" as="sourcePoint" />
            <mxPoint x="-660" y="810" as="targetPoint" />
            <Array as="points">
              <mxPoint x="-650" y="365" />
              <mxPoint x="-650" y="815" />
            </Array>
          </mxGeometry>
        </mxCell>
        <mxCell id="n8BZFwkFFO_Z2MSDaQy5-261" value="PK" style="shape=partialRectangle;overflow=hidden;connectable=0;fillColor=none;top=0;left=0;bottom=0;right=0;fontStyle=1;" vertex="1" parent="1">
          <mxGeometry x="-585" y="800" width="30" height="30" as="geometry" />
        </mxCell>
        <mxCell id="n8BZFwkFFO_Z2MSDaQy5-262" value="PK" style="shape=partialRectangle;overflow=hidden;connectable=0;fillColor=none;top=0;left=0;bottom=0;right=0;fontStyle=1;" vertex="1" parent="1">
          <mxGeometry x="-585" y="830" width="30" height="30" as="geometry" />
        </mxCell>
        <mxCell id="n8BZFwkFFO_Z2MSDaQy5-263" value="" style="endArrow=none;html=1;" edge="1" parent="1">
          <mxGeometry width="50" height="50" relative="1" as="geometry">
            <mxPoint x="-590" y="830" as="sourcePoint" />
            <mxPoint x="-472" y="830" as="targetPoint" />
          </mxGeometry>
        </mxCell>
        <mxCell id="n8BZFwkFFO_Z2MSDaQy5-264" value="" style="endArrow=classic;html=1;entryX=0;entryY=0.5;entryDx=0;entryDy=0;" edge="1" parent="1" target="n8BZFwkFFO_Z2MSDaQy5-204">
          <mxGeometry width="50" height="50" relative="1" as="geometry">
            <mxPoint x="-474" y="845" as="sourcePoint" />
            <mxPoint x="-410" y="820" as="targetPoint" />
            <Array as="points">
              <mxPoint x="-400" y="845" />
              <mxPoint x="-400" y="675" />
            </Array>
          </mxGeometry>
        </mxCell>
      </root>
    </mxGraphModel>
  </diagram>
</mxfile>
